<svg width="300px" height="500px" xmlns="http://www.w3.org/2000/svg" viewBox="0 0 476.89 725"><defs><style>.cls-1{fill:#1a1b23;}.cls-2{opacity:0.81;}.cls-3{fill:#2e2e30;}.cls-4{fill:#3b3b3f;}.cls-5{fill:#fff;}</style></defs><g id="图层_2" data-name="图层 2"><g id="图层_5" data-name="图层 5"><path class="cls-1" d="M230.44,242.78A49.36,49.36,0,1,1,276,212.59h0A49.43,49.43,0,0,1,230.44,242.78Zm.07-80.74a31.37,31.37,0,1,0,28.9,43.56h0A31.4,31.4,0,0,0,230.51,162Z"/><path class="cls-1" d="M230.51,218.06a24.73,24.73,0,0,1-9.57-1.94A24.63,24.63,0,1,1,253.21,203h0a24.69,24.69,0,0,1-22.69,15.07Zm0-31.27a6.63,6.63,0,1,0,6.11,9.21h0a6.63,6.63,0,0,0-6.11-9.21Z"/><g class="cls-2"><path class="cls-3" d="M138.14,217l-79.23,7.76a174.54,174.54,0,0,1,71.4-174.09l51.37,60.93A95.29,95.29,0,0,0,138.14,217Z"/></g><path class="cls-1" d="M51.55,234.49l-1.5-8.15a183.6,183.6,0,0,1,75.1-183.09l6.74-4.72,63.51,75.34-9.12,5.43a86.31,86.31,0,0,0-39.42,95.42l2.61,10.17ZM128.87,62.88a165.62,165.62,0,0,0-62.4,152.06l60.86-6a104.46,104.46,0,0,1,41-99.31Z"/><path class="cls-1" d="M129.42,219.2A104.33,104.33,0,0,1,271,97.29l145.45,61.3-7,16.59L264,113.88A86.32,86.32,0,0,0,146.86,214.74Z"/><polyline class="cls-4" points="171.08 374.65 168.69 397.01 352.88 388.43 341.68 364.04"/><polygon class="cls-1" points="158.63 406.49 162.13 373.7 180.03 375.61 178.76 387.53 339.13 380.06 333.5 367.8 349.85 360.29 366.62 396.8 158.63 406.49"/><path class="cls-4" d="M145.55,348.38l1,17.89a8,8,0,0,0,8.47,7.56l181-9.81a8,8,0,0,0,7.25-6l-.7-20.17"/><path class="cls-1" d="M154.44,382.85a17,17,0,0,1-16.92-16.1l-1-17.89,18-1,.9,16.89,178.64-9.68-.59-16.91,18-.63.75,21.5-.33,1.28A17,17,0,0,1,336.48,373l-181,9.81C155.12,382.84,154.78,382.85,154.44,382.85Zm0-18h0Z"/><path class="cls-4" d="M124.38,322.49l3.06,19.69a8,8,0,0,0,8.36,6.76L341,337.24a8,8,0,0,0,7.41-6.52l3.51-18.83"/><path class="cls-1" d="M135.32,358a16.94,16.94,0,0,1-16.78-14.4l-3.05-19.68,17.79-2.76,2.91,18.79,203.47-11.6L343,310.24l17.7,3.3-3.51,18.83a17,17,0,0,1-15.75,13.85l-205.15,11.7Z"/><path class="cls-4" d="M97.72,288.88l5,27a8,8,0,0,0,8.2,6.55l252.56-10.53"/><path class="cls-1" d="M110.57,331.47a17.08,17.08,0,0,1-16.72-13.92l-5-27,17.7-3.26,4.83,26.19L363.09,303l.75,18L111.28,331.46Z"/><path class="cls-1" d="M116.83,489.13l9.55-97.4,229-10.18,10.29,97.23ZM142.77,409l-6,61.26,209-8.69-6.49-61.3Z"/><path class="cls-1" d="M373.53,323.83l-4.8-2.4-288.51-25a26.77,26.77,0,0,1-21.64-14.46,193.49,193.49,0,0,1-17.45-49.4,13.58,13.58,0,0,1,7.52-15.05A183.69,183.69,0,0,1,117.9,48.6a13.56,13.56,0,0,1,5.2-16,193.43,193.43,0,0,1,255,285.83ZM59.82,233.68a176.09,176.09,0,0,0,14.77,40,9,9,0,0,0,7.19,4.76l285.51,24.78a175.3,175.3,0,0,0,24.82-41.71h0A175.38,175.38,0,0,0,137.24,44.89l6.3,7.46L135.47,58A165.55,165.55,0,0,0,67.76,223.1l1.76,9.62Z"/><polygon class="cls-5" points="9.25 590.06 90.45 465.94 171.17 465.94 315.18 441.96 315.18 716 20.66 716 9.25 590.06"/><path class="cls-1" d="M324.18,725H12.44L0,587.75,85.59,456.94h84.84l153.75-25.6ZM28.89,707H306.18V452.58L171.92,474.94H95.32L18.49,592.37Z"/><polygon class="cls-1" points="104.18 618.62 7.45 598.88 11.05 581.24 94.31 598.24 163.14 461.89 179.21 470 104.18 618.62"/><polygon class="cls-1" points="106.28 717.32 89.01 600.74 313.96 570.06 316.4 587.9 109.48 616.12 124.09 714.68 106.28 717.32"/><polygon class="cls-5" points="247.13 386.87 213.44 540.48 200.19 716 315.18 716 403.18 716 467.89 700.78 467.89 529.5 412.7 409.75 247.13 386.87"/><path class="cls-1" d="M404.23,725H190.48l14-185.83,35.61-162.36,178.69,24.7,58.08,126V707.91ZM209.89,707H402.14l56.75-13.35V531.47L406.59,418,254.14,396.92,222.37,541.79Z"/><polyline class="cls-5" points="213.44 540.48 304.22 487.63 467.89 529.5"/><polygon class="cls-1" points="217.97 548.25 208.91 532.7 302.88 478 470.12 520.78 465.66 538.22 305.56 497.27 217.97 548.25"/></g></g></svg>
