<svg viewBox="0 0 400 400" xmlns="http://www.w3.org/2000/svg" id="图层_1"><defs><style>.cls-1{fill:#333;}.cls-1,.cls-2,.cls-3{stroke:#000;stroke-linecap:round;stroke-linejoin:round;stroke-width:1px;}.cls-2{fill:#fff;}.cls-3{fill:#db0e0e;}</style></defs><title>熊猫</title><path d="M141.57,189.11S125.59,188,118,183s-12.55-12.35-20.92-9.88S87,187.4,87,187.4l16.46,19.21,31.67,8.75Z" class="cls-1"></path><path d="M239.54,185.69s-14.32-11.29-30.31-22.64c-15.07-10.7-68.17-18.87-80.4,35.57-7.61,33.86,4.27,44.81,4.27,44.81a11.57,11.57,0,0,0,5.62,6.47c4.29,2.06,42.15,2.16,60.5,1.36s79.36-3.09,79.36-3.09Z" class="cls-2"></path><circle r="48.7" cy="201.2" cx="273.92" class="cls-2"></circle><circle r="16.17" cy="212.38" cx="319.97" class="cls-1"></circle><ellipse transform="translate(-14.49 340.93) rotate(-60)" ry="10.54" rx="14.49" cy="183.01" cx="288.01" class="cls-1"></ellipse><ellipse ry="6.21" rx="4.82" cy="154.49" cx="276.7" class="cls-1"></ellipse><circle r="4.64" cy="167.69" cx="257.21" class="cls-3"></circle><path d="M219.38,220.31s.5-10.91-4.57-16.23-10.91-13.45-16.49-24.86-8.89-23-18.26-26.72-22.07.1-27.65,15.19,1,47,25.12,58.45,29.42,8.63,32.72,7.36S217.85,228.68,219.38,220.31Z" class="cls-1"></path><path d="M149.73,247.89l-37.9,2s-20.57-.69-26-1.92a13.3,13.3,0,0,1-8-5.1S59.33,215.24,64.91,200,80.63,178,88.24,181.76c0,0,9.64,4.56,12.43,8.11s9.13,12.68,14.46,14.46,37.82,1,42.86,15.47C165.6,241.62,149.73,247.89,149.73,247.89Z" class="cls-1"></path></svg>